# xmcd
#
# Track frame offsets:
#	150
#	21382
#	38581
#	53579
#	76683
#	91232
#	109665
#	125517
#	139635
#	151812
#	177485
#	193543
#
# Disc length: 2807 seconds
#
# Revision: 2
# Processed by: cddbd v1.5.1PL0 Copyright (c) Steve Scherf et al.
# Submitted via: audiograbber 1.83.01
#
DISCID=8c0af50c
DTITLE=Craig Horton - Touch of the Bluesman
DYEAR=2004
DGENRE=Blues
TTITLE0=Find Another Fool
TTITLE1=Life of Luxury
TTITLE2=Burnin'
TTITLE3=Elizabeth
TTITLE4=10 Years Gone
TTITLE5=That Little Girl can Dance
TTITLE6=Damn Money
TTITLE7=Serves me Right to Suffer
TTITLE8=Wanda Jean
TTITLE9=Reachin' for Shadows
TTITLE10=Ain't Gonna Take It
TTITLE11=Lovestruck
EXTD=
EXTT0=
EXTT1=
EXTT2=
EXTT3=
EXTT4=
EXTT5=
EXTT6=
EXTT7=
EXTT8=
EXTT9=
EXTT10=
EXTT11=
PLAYORDER=
